<svg width="57" height="49" viewBox="0 0 57 49" fill="none" xmlns="http://www.w3.org/2000/svg">
<path fill-rule="evenodd" clip-rule="evenodd" d="M34.022 7.65626H22.9783C22.6292 9.12763 21.7845 10.4783 20.5493 11.5401C19.3141 12.6019 17.743 13.3281 16.0314 13.6281V14.9552C17.743 15.2553 19.3141 15.9814 20.5493 17.0433C21.7845 18.1051 22.6292 19.4557 22.9783 20.9271H34.022C34.3711 19.4557 35.2158 18.1051 36.451 17.0433C37.6862 15.9814 39.2573 15.2553 40.9689 14.9552V13.6281C39.2573 13.3281 37.6862 12.6019 36.451 11.5401C35.2158 10.4783 34.3711 9.12763 34.022 7.65626ZM35.4589 4.59989C34.8066 4.59444 34.1115 4.5924 33.3736 4.59376H23.6266C22.8888 4.59376 22.1945 4.5958 21.5438 4.59989C21.414 4.59276 21.2837 4.5948 21.1543 4.60601C20.0808 4.62235 19.1284 4.66114 18.3019 4.75709C16.8104 4.92859 15.4638 5.30834 14.3831 6.2373C13.3001 7.1683 12.8584 8.32593 12.6589 9.60605C12.5473 10.3186 12.5021 11.1373 12.4831 12.0601C12.4702 12.1707 12.4679 12.282 12.476 12.3929C12.4697 12.9551 12.4673 13.5526 12.4689 14.1855V14.3978C12.4689 15.0308 12.4713 15.6283 12.476 16.1904C12.4679 16.3013 12.4702 16.4126 12.4831 16.5232C12.5021 17.4481 12.5473 18.2648 12.6589 18.9753C12.8584 20.2574 13.3001 21.4151 14.3831 22.344C15.4638 23.275 16.8104 23.6548 18.3019 23.8263C19.1284 23.9222 20.0808 23.961 21.1543 23.9773C21.2837 23.9886 21.414 23.9906 21.5438 23.9835C22.1945 23.9889 22.8888 23.991 23.6266 23.9896H33.3736C34.1099 23.9896 34.805 23.9876 35.4589 23.9835C35.5879 23.9905 35.7174 23.9884 35.846 23.9773C36.9219 23.961 37.8743 23.9222 38.6984 23.8263C40.1899 23.6548 41.5365 23.275 42.6171 22.344C43.7001 21.4151 44.1419 20.2574 44.3414 18.9753C44.452 18.1613 44.5106 17.3427 44.5171 16.5232C44.5301 16.4126 44.5324 16.3013 44.5243 16.1904C44.5306 15.6283 44.533 15.0308 44.5314 14.3978V14.1855C44.5314 13.5526 44.529 12.9551 44.5243 12.3929C44.5324 12.282 44.5301 12.1707 44.5171 12.0601C44.5106 11.2406 44.452 10.4221 44.3414 9.60809C44.1419 8.32593 43.7001 7.1683 42.6195 6.23934C41.5365 5.30834 40.1899 4.92859 38.7008 4.75709C37.7531 4.66196 36.8001 4.61152 35.846 4.60601C35.7174 4.59492 35.5879 4.59287 35.4589 4.59989ZM37.7484 7.74609C38.0177 8.35671 38.4347 8.91123 38.9719 9.373C39.509 9.83476 40.1541 10.1932 40.8644 10.4248C40.8494 10.2883 40.8312 10.1522 40.8098 10.0164C40.6649 9.07318 40.4084 8.66893 40.0973 8.40351C39.7861 8.1381 39.3206 7.91964 38.2258 7.79101C38.0678 7.7733 37.9094 7.75833 37.7508 7.74609M40.8668 18.1586C40.1565 18.3901 39.5114 18.7486 38.9743 19.2104C38.4371 19.6721 38.0201 20.2266 37.7508 20.8373C37.917 20.8237 38.0754 20.8087 38.2258 20.7923C39.323 20.6637 39.7933 20.4453 40.102 20.1798C40.4108 19.9144 40.6673 19.5102 40.8145 18.5669C40.8335 18.4376 40.8509 18.3015 40.8668 18.1586ZM19.2543 20.8373C18.985 20.2266 18.5679 19.6721 18.0308 19.2104C17.4936 18.7486 16.8486 18.3901 16.1383 18.1586C16.1541 18.3015 16.1723 18.4376 16.1929 18.5669C16.3401 19.5102 16.5943 19.9144 16.9054 20.1798C17.2165 20.4453 17.682 20.6637 18.7769 20.7923C18.9289 20.8087 19.088 20.8237 19.2543 20.8373ZM16.1383 10.4248C16.8486 10.1932 17.4936 9.83476 18.0308 9.373C18.5679 8.91123 18.985 8.35671 19.2543 7.74609C19.088 7.75971 18.9297 7.77536 18.7793 7.79305C17.682 7.91964 17.2118 8.13809 16.903 8.40555C16.5943 8.67301 16.3401 9.07318 16.1905 10.0144L16.1383 10.4248ZM28.5001 13.7813C28.3427 13.7813 28.1917 13.835 28.0803 13.9308C27.969 14.0265 27.9064 14.1563 27.9064 14.2917C27.9064 14.427 27.969 14.5569 28.0803 14.6526C28.1917 14.7483 28.3427 14.8021 28.5001 14.8021C28.6576 14.8021 28.8086 14.7483 28.92 14.6526C29.0313 14.5569 29.0939 14.427 29.0939 14.2917C29.0939 14.1563 29.0313 14.0265 28.92 13.9308C28.8086 13.835 28.6576 13.7813 28.5001 13.7813ZM24.3439 14.2917C24.3439 13.3441 24.7818 12.4353 25.5612 11.7652C26.3407 11.0952 27.3978 10.7188 28.5001 10.7188C29.6025 10.7188 30.6596 11.0952 31.4391 11.7652C32.2185 12.4353 32.6564 13.3441 32.6564 14.2917C32.6564 15.2393 32.2185 16.1481 31.4391 16.8181C30.6596 17.4882 29.6025 17.8646 28.5001 17.8646C27.3978 17.8646 26.3407 17.4882 25.5612 16.8181C24.7818 16.1481 24.3439 15.2393 24.3439 14.2917ZM20.6246 29.498C25.0564 28.761 29.7993 28.9263 33.6396 30.8945C34.1764 31.1701 34.6846 31.5152 35.124 31.9398C36.017 32.8035 36.4778 33.8733 36.4991 34.9472C36.952 34.6941 37.4088 34.4171 37.8695 34.1163L42.1635 31.3294C43.2393 30.6507 44.5389 30.2847 45.8733 30.2847C47.2077 30.2847 48.5073 30.6507 49.583 31.3294C51.5661 32.6156 52.3594 34.9288 50.9368 36.8888C49.9274 38.2792 48.4074 40.2045 46.8589 41.4377C45.2914 42.6831 43.066 43.7325 41.3821 44.4308C39.3349 45.2801 37.1261 45.7497 34.9768 46.0478C30.583 46.6603 26.0135 46.5663 21.672 45.7966C19.4331 45.4009 17.1534 45.2005 14.8676 45.1984H9.50015C9.02773 45.1984 8.57466 45.0371 8.24061 44.7499C7.90656 44.4628 7.7189 44.0733 7.7189 43.6672C7.7189 43.2611 7.90656 42.8716 8.24061 42.5844C8.57466 42.2973 9.02773 42.1359 9.50015 42.1359H14.8676C17.3899 42.1359 19.9383 42.3625 22.3916 42.7974C26.3488 43.4955 30.4202 43.5722 34.4091 43.0241C36.3756 42.7505 38.2139 42.3442 39.8336 41.6725C41.4558 40.9987 43.2798 40.1126 44.4364 39.1918C45.6073 38.2588 46.9159 36.6438 47.9158 35.2678C48.2174 34.8513 48.1746 34.2531 47.436 33.7733C46.5573 33.2016 45.1869 33.2016 44.3105 33.7733L40.0189 36.5601C38.3041 37.6728 36.1951 38.8631 33.5803 39.2225C33.3063 39.2597 33.0316 39.2924 32.7561 39.3205C32.62 39.3409 32.4783 39.3545 32.331 39.3613C30.8051 39.4886 29.2684 39.4886 27.7425 39.3613C27.506 39.3466 27.2752 39.2914 27.0638 39.1989C26.8524 39.1065 26.6646 38.9787 26.5114 38.823C26.3582 38.6674 26.2427 38.487 26.1717 38.2924C26.1007 38.0979 26.0756 37.8931 26.0979 37.6901C26.1202 37.4871 26.1895 37.29 26.3016 37.1103C26.4137 36.9306 26.5664 36.772 26.7508 36.6437C26.9352 36.5155 27.1475 36.4201 27.3753 36.3634C27.6031 36.3066 27.8418 36.2895 28.0774 36.3131C29.3949 36.4227 30.7218 36.4207 32.0389 36.307L32.1101 36.3008C32.3317 36.1826 32.52 36.0236 32.6615 35.8352C32.8029 35.6469 32.894 35.4339 32.928 35.2116C32.9621 34.9894 32.9384 34.7634 32.8586 34.5499C32.7787 34.3365 32.6448 34.141 32.4664 33.9774C32.2759 33.7995 32.0558 33.6467 31.8133 33.5242C29.0084 32.0848 25.2606 31.8459 21.3015 32.5033C17.4339 33.1708 13.7676 34.5156 10.5309 36.454C10.34 36.5703 10.1244 36.6532 9.8962 36.6979C9.66806 36.7427 9.4319 36.7483 9.20122 36.7146C8.97053 36.6808 8.74984 36.6083 8.55174 36.5013C8.35364 36.3942 8.18201 36.2546 8.04665 36.0906C7.91129 35.9265 7.81485 35.7411 7.76284 35.5449C7.71082 35.3488 7.70426 35.1458 7.74351 34.9475C7.8228 34.547 8.0839 34.19 8.4694 33.955C12.1205 31.7651 16.2589 30.2477 20.6246 29.498Z" fill="black"/>
</svg>
