<svg width="40" height="40" viewBox="0 0 40 40" fill="none" xmlns="http://www.w3.org/2000/svg">
<path d="M33.7 37.5L31.2988 29.0938C31.2308 28.8568 31.2345 28.6051 31.3092 28.3703C31.3839 28.1354 31.5264 27.9279 31.7188 27.7738L37.3425 23.275L35.65 16.5013L32.2275 20.7813C32.1102 20.9278 31.9614 21.046 31.7922 21.1271C31.623 21.2083 31.4377 21.2503 31.25 21.25H25V18.75H30.65L35.275 12.9688C35.4207 12.7872 35.6141 12.65 35.8336 12.5724C36.0531 12.4949 36.2898 12.4802 36.5172 12.53C36.7445 12.5797 36.9535 12.692 37.1205 12.8541C37.2875 13.0162 37.406 13.2217 37.4625 13.4475L39.9625 23.4475C40.0206 23.6795 40.011 23.9232 39.9348 24.1499C39.8586 24.3765 39.719 24.5766 39.5325 24.7263L33.9325 29.2063L36.105 36.8138L33.7 37.5ZM28.75 6.875C28.75 6.00971 29.0066 5.16385 29.4873 4.44438C29.9681 3.72492 30.6513 3.16416 31.4508 2.83303C32.2502 2.5019 33.1299 2.41526 33.9785 2.58407C34.8272 2.75288 35.6067 3.16956 36.2186 3.78141C36.8304 4.39326 37.2471 5.17282 37.4159 6.02148C37.5847 6.87015 37.4981 7.74982 37.167 8.54924C36.8358 9.34867 36.2751 10.032 35.5556 10.5127C34.8362 10.9934 33.9903 11.25 33.125 11.25C31.9651 11.2487 30.8531 10.7873 30.0329 9.96713C29.2127 9.14695 28.7513 8.03492 28.75 6.875ZM31.25 6.875C31.25 7.24584 31.36 7.60835 31.566 7.9167C31.772 8.22504 32.0649 8.46536 32.4075 8.60728C32.7501 8.74919 33.1271 8.78632 33.4908 8.71397C33.8545 8.64163 34.1886 8.46305 34.4508 8.20083C34.713 7.9386 34.8916 7.60451 34.964 7.2408C35.0363 6.87708 34.9992 6.50008 34.8573 6.15747C34.7154 5.81486 34.475 5.52202 34.1667 5.316C33.8584 5.10997 33.4958 5 33.125 5C32.6277 5 32.1508 5.19755 31.7992 5.54918C31.4475 5.90081 31.25 6.37772 31.25 6.875Z" fill="black"/>
<path d="M25.005 23.75C24.3406 23.75 23.7035 23.4861 23.2337 23.0163C22.7639 22.5465 22.5 21.9094 22.5 21.245V18.755C22.5 18.0906 22.7639 17.4535 23.2337 16.9837C23.7035 16.5139 24.3406 16.25 25.005 16.25H27.5V12.5H12.5V16.25H14.995C15.6594 16.25 16.2965 16.5139 16.7663 16.9837C17.2361 17.4535 17.5 18.0906 17.5 18.755V21.245C17.5 21.9094 17.2361 22.5465 16.7663 23.0163C16.2965 23.4861 15.6594 23.75 14.995 23.75H12.5V27.5H27.5V23.75H25.005Z" fill="black"/>
<path d="M6.30023 37.5L8.70273 29.0938C8.77052 28.8567 8.76669 28.6049 8.69174 28.37C8.61678 28.1352 8.47405 27.9277 8.28148 27.7738L2.65773 23.275L4.35148 16.5025L7.77398 20.7813C7.89115 20.9276 8.03972 21.0457 8.20871 21.1268C8.3777 21.208 8.56277 21.2501 8.75023 21.25H15.0002V18.75H9.35023L4.72648 12.9688C4.58081 12.7872 4.38736 12.65 4.16789 12.5724C3.94843 12.4949 3.71168 12.4802 3.48432 12.53C3.25695 12.5797 3.04799 12.692 2.88097 12.8541C2.71395 13.0162 2.59551 13.2217 2.53898 13.4475L0.0389837 23.4475C-0.0191636 23.6795 -0.00955927 23.9232 0.0666573 24.1499C0.142874 24.3765 0.282504 24.5766 0.468984 24.7263L6.06898 29.2063L3.89523 36.8138L6.30023 37.5ZM6.87523 11.25C6.00994 11.25 5.16408 10.9934 4.44461 10.5127C3.72515 10.032 3.16439 9.34867 2.83326 8.54924C2.50213 7.74982 2.41549 6.87015 2.5843 6.02148C2.75311 5.17282 3.16979 4.39326 3.78164 3.78141C4.3935 3.16956 5.17305 2.75288 6.02171 2.58407C6.87038 2.41526 7.75005 2.5019 8.54947 2.83303C9.3489 3.16416 10.0322 3.72492 10.5129 4.44438C10.9936 5.16385 11.2502 6.00971 11.2502 6.875C11.2489 8.03492 10.7875 9.14695 9.96736 9.96713C9.14718 10.7873 8.03515 11.2487 6.87523 11.25ZM6.87523 5C6.50439 5 6.14188 5.10997 5.83354 5.316C5.5252 5.52202 5.28487 5.81486 5.14296 6.15747C5.00104 6.50008 4.96391 6.87708 5.03626 7.2408C5.10861 7.60451 5.28718 7.9386 5.54941 8.20083C5.81163 8.46305 6.14572 8.64163 6.50944 8.71397C6.87315 8.78632 7.25015 8.74919 7.59276 8.60728C7.93538 8.46536 8.22821 8.22504 8.43424 7.9167C8.64027 7.60835 8.75023 7.24584 8.75023 6.875C8.75023 6.37772 8.55269 5.90081 8.20106 5.54918C7.84943 5.19755 7.37251 5 6.87523 5Z" fill="black"/>
</svg>
