<svg width="40" height="43" viewBox="0 0 40 43" fill="none" xmlns="http://www.w3.org/2000/svg">
<path d="M31.2002 25.8947C31.7835 24.4035 32.1002 22.807 32.1002 21.0526C32.1002 19.7895 31.9168 18.579 31.6002 17.4562C30.5168 17.7193 29.3835 17.8597 28.2002 17.8597C25.7768 17.8624 23.3883 17.2518 21.236 16.0793C19.0838 14.9069 17.2309 13.207 15.8335 11.1228C14.3401 14.9311 11.5197 17.9941 7.95016 19.6842C7.8835 20.1228 7.8835 20.5965 7.8835 21.0526C7.8835 22.7276 8.1969 24.3861 8.80582 25.9335C9.41474 27.481 10.3072 28.887 11.4324 30.0714C13.7047 32.4633 16.7866 33.807 20.0002 33.807C21.7502 33.807 23.4335 33.4035 24.9502 32.6842C25.9002 34.5965 26.3335 35.5439 26.3002 35.5439C23.5668 36.5088 21.4502 36.9825 20.0002 36.9825C15.9668 36.9825 12.1168 35.3158 9.2835 32.3158C7.55858 30.5087 6.27728 28.2869 5.55016 25.8421H3.3335V17.8597H5.15016C5.70057 15.0395 6.96598 12.4288 8.81215 10.3046C10.6583 8.18032 13.0163 6.62178 15.636 5.79432C18.2557 4.96687 21.0394 4.90137 23.6916 5.60476C26.3438 6.30815 28.7657 7.75421 30.7002 9.78949C32.7998 11.9923 34.2323 14.8005 34.8168 17.8597H36.6668V25.8421H36.5668L30.6335 31.579L21.8002 30.5263V27.5965H29.8502L31.2002 25.8947ZM15.4502 20.6491C15.9502 20.6491 16.4335 20.8597 16.7835 21.2456C17.1352 21.6189 17.3326 22.1234 17.3326 22.6491C17.3326 23.1749 17.1352 23.6794 16.7835 24.0526C16.4335 24.4211 15.9502 24.6316 15.4502 24.6316C14.4002 24.6316 13.5502 23.7544 13.5502 22.6491C13.5502 21.5439 14.4002 20.6491 15.4502 20.6491ZM24.5335 20.6491C25.5835 20.6491 26.4168 21.5439 26.4168 22.6491C26.4168 23.7544 25.5835 24.6316 24.5335 24.6316C23.4835 24.6316 22.6335 23.7544 22.6335 22.6491C22.6335 22.1187 22.8337 21.61 23.19 21.2349C23.5463 20.8598 24.0296 20.6491 24.5335 20.6491Z" fill="black"/>
</svg>
