<svg width="34" height="32" viewBox="0 0 34 32" fill="none" xmlns="http://www.w3.org/2000/svg">
<path d="M15.5188 0.420446C15.8238 0.149593 16.2175 0 16.6254 0C17.0334 0 17.4271 0.149593 17.7321 0.420446L32.7321 13.7538C33.0457 14.0516 33.2312 14.4597 33.2494 14.8918C33.2677 15.3239 33.1172 15.7462 32.8299 16.0694C32.5426 16.3926 32.1409 16.5915 31.7096 16.6241C31.2784 16.6566 30.8514 16.5202 30.5188 16.2438L29.9588 15.7488V28.3321C29.9588 29.2162 29.6076 30.064 28.9825 30.6891C28.3574 31.3143 27.5095 31.6654 26.6254 31.6654H6.62545C5.74139 31.6654 4.89355 31.3143 4.26843 30.6891C3.6433 30.064 3.29211 29.2162 3.29211 28.3321V15.7488L2.73211 16.2438C2.39955 16.5202 1.97253 16.6566 1.54128 16.6241C1.11003 16.5915 0.708309 16.3926 0.420986 16.0694C0.133663 15.7462 -0.0167626 15.3239 0.00148574 14.8918C0.0197341 14.4597 0.205228 14.0516 0.518781 13.7538L15.5188 0.420446ZM6.62545 12.7821V28.3321H11.6254V19.9988C11.6254 19.5568 11.801 19.1328 12.1136 18.8203C12.4262 18.5077 12.8501 18.3321 13.2921 18.3321H19.9588C20.4008 18.3321 20.8247 18.5077 21.1373 18.8203C21.4499 19.1328 21.6254 19.5568 21.6254 19.9988V28.3321H26.6254V12.7838L16.6254 3.89545L6.62545 12.7821ZM18.2921 28.3321V21.6654H14.9588V28.3321H18.2921Z" fill="black"/>
</svg>
