<svg width="43" height="40" viewBox="0 0 43 40" fill="none" xmlns="http://www.w3.org/2000/svg">
<path d="M40.1889 18.3196C40.2713 18.9316 40.3125 19.5837 40.3125 20.2761C40.3125 24.2121 39.0628 26.8584 37.8669 28.5021C37.3945 29.1546 36.8443 29.7526 36.2275 30.2842C36.0247 30.4549 35.813 30.6158 35.5933 30.7663L35.5691 30.7817C35.3758 30.8969 35.2164 31.0572 35.1059 31.2474C34.9955 31.4376 34.9375 31.6514 34.9375 31.8689V36.1537C34.9375 36.4937 34.7959 36.8198 34.5439 37.0603C34.2919 37.3007 33.9501 37.4358 33.5938 37.4358H29.8743C29.7916 37.4358 29.7123 37.4044 29.6538 37.3487C29.5953 37.2929 29.5625 37.2172 29.5625 37.1383C29.5625 35.5562 28.2188 34.2741 26.5632 34.2741H21.8118C20.1562 34.2741 18.8125 35.5562 18.8125 37.1383C18.8125 37.2172 18.7797 37.2929 18.7212 37.3487C18.6627 37.4044 18.5834 37.4358 18.5007 37.4358H14.7812C14.4249 37.4358 14.0831 37.3007 13.8311 37.0603C13.5791 36.8198 13.4375 36.4937 13.4375 36.1537V33.9741C13.4367 33.7056 13.3476 33.444 13.1827 33.2264C13.0178 33.0088 12.7854 32.8461 12.5184 32.7612L12.4109 32.7125C12.1972 32.6129 11.9907 32.4998 11.7928 32.374C11.2015 32.0099 10.2689 31.333 9.01925 30.1252C7.89268 29.0176 6.98497 27.725 6.33981 26.3097C5.84531 25.2276 4.81063 24.2763 3.42656 24.0532C3.22054 24.0199 3.03342 23.9184 2.89821 23.7664C2.763 23.6144 2.68838 23.4217 2.6875 23.2224V19.3581C2.6875 19.1822 2.75284 19.012 2.87191 18.8778C2.99098 18.7435 3.15608 18.6538 3.33788 18.6247C4.816 18.3863 5.86413 17.3067 6.27263 16.1169C6.622 15.0964 7.25088 13.7579 8.29363 12.7501C9.17231 11.9128 10.1563 11.1824 11.223 10.5757C11.6508 10.3316 12.0902 10.1065 12.5399 9.90129L12.6097 9.87051L12.6232 9.86539C12.8655 9.76629 13.0719 9.60137 13.2167 9.39118C13.3615 9.18099 13.4383 8.93481 13.4375 8.68328V3.30613C14.1174 3.87026 14.9103 4.48054 15.7649 5.02415C16.9312 5.7729 18.3207 6.4755 19.7477 6.72936C20.0774 5.87291 20.5074 5.06262 21.0378 4.29848L20.5459 4.24976C19.5919 4.15745 18.4443 3.6523 17.2591 2.89586C16.1923 2.19538 15.1898 1.40961 14.2626 0.547041C13.9727 0.282713 13.6086 0.104432 13.2145 0.0338719C12.8204 -0.0366878 12.4133 0.00351354 12.0427 0.149588C11.6627 0.292659 11.3365 0.54114 11.106 0.862937C10.8756 1.18473 10.7516 1.56506 10.75 1.95479V7.88838C9.14421 8.69838 7.67186 9.72908 6.38013 10.9475C4.92081 12.3578 4.128 14.1271 3.7195 15.3195C3.55825 15.7759 3.20888 16.0451 2.89175 16.0964C2.08386 16.2261 1.3502 16.6245 0.820862 17.2211C0.291525 17.8177 0.000715442 18.5739 4.38743e-07 19.3555V23.2198C-0.000417966 24.0259 0.298433 24.8061 0.843537 25.4219C1.38864 26.0378 2.14476 26.4495 2.97775 26.584C3.31369 26.6353 3.6765 26.8969 3.87538 27.3354C4.65285 29.0389 5.74731 30.594 7.10575 31.9253C8.47369 33.2484 9.55406 34.0459 10.3281 34.5254C10.4821 34.6194 10.6228 34.7023 10.75 34.7741V36.1537C10.75 36.6588 10.8543 37.1589 11.0569 37.6256C11.2594 38.0923 11.5564 38.5163 11.9307 38.8734C12.3051 39.2306 12.7495 39.5139 13.2386 39.7072C13.7277 39.9005 14.2519 40 14.7812 40H18.5007C20.1562 40 21.5 38.7179 21.5 37.1383C21.5 36.9717 21.6397 36.8383 21.8118 36.8383H26.5632C26.7353 36.8383 26.875 36.9717 26.875 37.1383C26.875 38.7179 28.2188 40 29.8743 40H33.5938C34.6629 40 35.6883 39.5948 36.4443 38.8734C37.2003 38.1521 37.625 37.1738 37.625 36.1537V32.5151C38.557 31.7747 39.3797 30.9173 40.0706 29.9662C41.5622 27.9226 43 24.7711 43 20.2761C43 18.4145 42.7286 16.7477 42.2126 15.2579C41.7102 16.3739 41.0263 17.4071 40.1862 18.3196M39.7777 7.26015C40.5843 9.11958 40.7126 11.1837 40.1419 13.1211C39.5711 15.0584 38.3345 16.7565 36.6306 17.9427C35.475 18.7427 33.9512 18.6863 32.6343 18.1657L24.4643 14.9374C23.1474 14.4169 22.0268 13.4296 21.8037 12.086C21.4559 9.92056 21.9503 7.70854 23.1936 5.86681C24.4369 4.02508 26.3433 2.68084 28.5535 2.08742C30.7637 1.49401 33.125 1.6924 35.1925 2.64521C37.26 3.59802 38.8909 5.23945 39.7777 7.26015ZM35.0477 15.8708C36.0133 15.2007 36.7742 14.2971 37.2523 13.2532C37.7303 12.2093 37.9082 11.0627 37.7675 9.93138C37.6268 8.8001 37.1728 7.72502 36.452 6.81679C35.7312 5.90856 34.7698 5.2 33.6667 4.76404C32.5636 4.32808 31.3587 4.18047 30.1759 4.33641C28.9931 4.49234 27.8753 4.94618 26.9374 5.65122C25.9996 6.35626 25.2756 7.28702 24.8399 8.34771C24.4043 9.4084 24.2728 10.5607 24.4589 11.686C24.4935 11.8303 24.5709 11.9621 24.682 12.0655C24.854 12.2398 25.1281 12.4245 25.4936 12.5681L33.6636 15.799C33.9626 15.9214 34.2843 15.9851 34.6096 15.9862C34.7651 15.9891 34.9155 15.949 35.0477 15.8708ZM12.7656 18.2042C13.3002 18.2042 13.8129 18.0016 14.1909 17.6409C14.5689 17.2803 14.7812 16.7911 14.7812 16.281C14.7812 15.771 14.5689 15.2818 14.1909 14.9212C13.8129 14.5605 13.3002 14.3579 12.7656 14.3579C12.231 14.3579 11.7184 14.5605 11.3404 14.9212C10.9624 15.2818 10.75 15.771 10.75 16.281C10.75 16.7911 10.9624 17.2803 11.3404 17.6409C11.7184 18.0016 12.231 18.2042 12.7656 18.2042Z" fill="black"/>
</svg>
