<svg width="52" height="50" viewBox="0 0 42 40" fill="none" xmlns="http://www.w3.org/2000/svg">
<path d="M33.1746 12.0834H32.7381V8.33335C32.7335 7.56115 32.4101 6.82183 31.8381 6.27579C31.266 5.72976 30.4915 5.42106 29.6825 5.41668C29.5439 5.39366 29.4021 5.39366 29.2635 5.41668L8.48571 12.0834H8.01428L7.71745 12.1834H7.47301L7.19364 12.3334L6.98412 12.6167L6.73967 12.8167L6.54761 12.9834L6.33809 13.2334C6.28245 13.2814 6.23529 13.3377 6.1984 13.4C6.13485 13.4971 6.07657 13.5972 6.0238 13.7L5.91904 13.8834C5.87094 14.0032 5.83013 14.1257 5.79682 14.25C5.80388 14.3109 5.80388 14.3724 5.79682 14.4334C5.77997 14.6219 5.77997 14.8115 5.79682 15V31.6667C5.80048 32.4192 6.107 33.1416 6.65297 33.6845C7.19894 34.2273 7.9426 34.5492 8.73015 34.5834H33.1746C33.9836 34.579 34.7581 34.2703 35.3301 33.7242C35.9022 33.1782 36.2256 32.4389 36.2301 31.6667V15C36.2256 14.2278 35.9022 13.4885 35.3301 12.9425C34.7581 12.3964 33.9836 12.0877 33.1746 12.0834ZM29.8222 7.93335C29.9082 7.96363 29.9826 8.01804 30.0356 8.08944C30.0885 8.16084 30.1176 8.24587 30.119 8.33335V12.0834H16.7968L29.8222 7.93335ZM33.6111 31.6667C33.6111 31.7772 33.5651 31.8832 33.4832 31.9613C33.4014 32.0395 33.2904 32.0834 33.1746 32.0834H8.73015C8.61438 32.0834 8.50335 32.0395 8.42149 31.9613C8.33963 31.8832 8.29364 31.7772 8.29364 31.6667V15C8.29364 14.8895 8.33963 14.7835 8.42149 14.7054C8.50335 14.6272 8.61438 14.5834 8.73015 14.5834H33.1746C33.2904 14.5834 33.4014 14.6272 33.4832 14.7054C33.5651 14.7835 33.6111 14.8895 33.6111 15V31.6667Z" fill="black"/>
<path d="M28.8095 25.4167C30.0149 25.4167 30.992 24.4839 30.992 23.3333C30.992 22.1827 30.0149 21.25 28.8095 21.25C27.6041 21.25 26.627 22.1827 26.627 23.3333C26.627 24.4839 27.6041 25.4167 28.8095 25.4167Z" fill="black"/>
</svg>
